<mxfile host="app.diagrams.net" modified="2024-05-23T23:46:40.061Z" agent="Mozilla/5.0 (Windows NT 10.0; Win64; x64) AppleWebKit/537.36 (KHTML, like Gecko) Chrome/124.0.0.0 Safari/537.36" version="24.4.6" etag="zyUolYoI_l5PEkklzJlr" type="github">
  <diagram name="Page-1" id="lXeZaDpRTKKy6kyvK25s">
    <mxGraphModel>
      <root>
        <mxCell id="0" />
        <mxCell id="1" parent="0" />
      </root>
    </mxGraphModel>
  </diagram>
</mxfile>
